<?xml version="1.0" encoding="UTF-8"?>
<svg width="512pt" height="512pt" version="1.1" viewBox="0 0 512 512" xmlns="http://www.w3.org/2000/svg">
 <path d="m253.44 76.801h-6.9414c-3.8398 0-6.3203-4.0586-4.5391-7.4805l15.301-29.5c1.9414-3.7617 7.3203-3.6797 9.1602 0.12109l14.199 29.52c1.6406 3.3984-0.83984 7.3398-4.6211 7.3398h-7.1992v22.242c17.18 0.69922 30.738 3.5586 41.441 7.582 5.0586 1.8984 10.379 4.1406 15.66 6.3594 0.96094 0.42188 1.9414 0.82031 2.8984 1.2188 6.3008 2.6602 12.602 5.2383 18.859 7.3984 12.68 4.3398 24.262 6.582 34.422 4.5195l47.301-9.6016c4.1602-0.83984 8.2188 1.8398 9.0586 6 0.83984 4.1406-1.8398 8.1992-6 9.0391l-39.219 7.9609 66.477 109.94 1.1016 1.8398v12.379h-0.14062c-0.51953 8.1211-2.3594 16.121-5.4805 23.641-3.7188 8.9805-9.1602 17.121-16.039 23.98-6.8594 6.8789-15 12.32-23.98 16.039-8.9609 3.6992-18.578 5.6211-28.281 5.6211-9.7188 0-19.32-1.9219-28.301-5.6211-8.9609-3.7188-17.102-9.1602-23.98-16.039-6.8594-6.8594-12.301-15-16.02-23.98-3.7188-8.9609-5.6211-18.578-5.6211-28.281h0.10156l-0.19922-2.4414-0.17969-2.3984 1.2188-2.0781 64.5-110.04c-12.121 0.89844-24.398-2.0586-35.738-5.9609-6.7812-2.3398-13.48-5.1016-19.82-7.7617-1-0.42188-2-0.83984-2.9805-1.2383-5.2812-2.2383-10.262-4.3398-15.02-6.1211-8.8203-3.3203-20.539-5.8984-36.039-6.582v284.94h58.879c5.6602 0 10.238 4.5781 10.238 10.238v15.359h-153.6v-15.359c0-5.6602 4.5781-10.238 10.238-10.238h58.879v-285c-18.781 0.69922-32.441 4.1602-42.301 8.3789-2.8008 1.2188-5.7812 2.5391-8.8789 3.9414-8.2383 3.6992-17.32 7.7617-26.34 10.82-8.418 2.8594-17.379 5.0586-26.441 5.3789l64.461 106.58 1.1016 1.8398v12.379h-0.14062c-0.51953 8.1211-2.3594 16.121-5.4805 23.641-3.7188 8.9805-9.1602 17.121-16.039 23.98-6.8594 6.8789-15 12.32-23.98 16.039-8.9609 3.6992-18.578 5.6211-28.281 5.6211-9.7188 0-19.32-1.9219-28.301-5.6211-8.9609-3.7188-17.102-9.1602-23.98-16.039-6.8594-6.8594-12.301-15-16.02-23.98-3.7188-8.9609-5.6211-18.578-5.6211-28.281h0.10156l-0.19922-2.4414-0.17969-2.3984 1.2188-2.0781 65-110.88-47.621-9.6797c-4.1602-0.83984-6.8594-4.8984-6-9.0391 0.83984-4.1602 4.8789-6.8398 9.0391-6l50.68 10.281c9.5391 1.9219 20.199 0.078125 31.738-3.8398 8.2812-2.8203 16.32-6.4219 24.34-10 3.2383-1.4609 6.5-2.9219 9.7578-4.3203 11.961-5.1406 27.699-8.9414 48.359-9.6406zm-170.74 182.24h116.98v-3.4609l-58.777-97.199-58.301 99.422zm245.76 0h116.98v-3.4609l-58.777-97.199-58.301 99.422zm-169.74 186.4c0-5.6602 4.5781-10.238 10.238-10.238h179.2c5.6602 0 10.238 4.5781 10.238 10.238v15.359h-199.68z" fill="#70d258" fill-rule="evenodd"/>
</svg>
