<?xml version="1.0" encoding="UTF-8"?>
<svg width="512pt" height="512pt" version="1.1" viewBox="0 0 512 512" xmlns="http://www.w3.org/2000/svg">
 <path d="m486.4 308.8v43.199c0 21.219-17.18 38.398-38.398 38.398h-68.059c0.57812-3.0781 0.85938-6.3398 0.85938-9.6016v-57.602c0-29-10.082-56.258-27.359-77.762 7.9609-6.5195 17.078-11.52 27.059-14.602-16.898-8.7383-28.52-26.398-28.52-46.84 0-29.18 23.621-52.797 52.797-52.797 29.18 0 52.797 23.621 52.797 52.797 0 20.441-11.621 38.121-28.52 46.84 33.219 10.359 57.32 41.379 57.32 77.961z" fill="#45dee0"/>
 <path d="m131.2 323.2v57.602c0 3.2617 0.28125 6.5195 0.85938 9.6016h-68.059c-21.219 0-38.398-17.18-38.398-38.398v-43.199c0-36.578 24.102-67.578 57.32-77.961-16.898-8.7383-28.52-26.398-28.52-46.84 0-29.18 23.621-52.797 52.797-52.797s52.797 23.621 52.797 52.797c0 20.441-11.621 38.121-28.52 46.84 9.9805 3.0781 19.102 8.0586 27.059 14.602-17.281 21.5-27.359 48.762-27.359 77.762z" fill="#45dee0"/>
 <path d="m283.4 221.32c23.441-10.5 39.801-33.98 39.801-61.32 0-37.121-30.078-67.199-67.199-67.199s-67.199 30.078-67.199 67.199c0 27.34 16.359 50.82 39.801 61.32-45 12.082-78.199 53.059-78.199 101.88v57.602c0 21.199 17.199 38.398 38.398 38.398h134.4c21.199 0 38.398-17.199 38.398-38.398v-57.602c0-48.82-33.18-89.801-78.199-101.88z" fill="#45dee0"/>
</svg>
