<?xml version="1.0" encoding="UTF-8"?>
<svg width="512pt" height="512pt" version="1.1" viewBox="0 0 512 512" xmlns="http://www.w3.org/2000/svg">
 <path d="m119.67 422.14-43.102 43.102c-42.551-44.441-66.895-103.21-68.234-164.73h60.973c1.3438 45.34 19.262 88.609 50.363 121.62zm-50.359-133.81h-60.973c1.4766-61.465 25.836-120.16 68.312-164.61l43.098 43.086-0.003906-0.003907c-31.047 33.016-48.98 76.227-50.434 121.53zm59.047-130.16c33.023-31.051 76.246-48.984 121.55-50.434v-60.973c-61.473 1.4688-120.18 25.824-164.64 68.305l43.09 43.09zm133.74-50.445-0.003906-60.961c61.473 1.4688 120.18 25.824 164.64 68.305l-42.977 42.969c-33.074-31.031-76.336-48.926-121.67-50.324zm27.871 298.05c-6.7891 9.3672-17.34 15.289-28.871 16.199s-22.883-3.2852-31.055-11.469l-0.082031-0.070312v-0.003906c-8.1758-8.1758-12.359-19.523-11.445-31.051 0.91016-11.527 6.8281-22.074 16.191-28.863l200.95-145.67zm145.47 59.457c42.547-44.438 66.891-103.21 68.227-164.71h-60.965c-1.3477 45.336-19.266 88.609-50.363 121.62l43.102 43.102zm68.227-176.9c-1.4766-61.461-25.836-120.16-68.309-164.61l-42.977 42.969c10.07 10.785 18.84 22.723 26.117 35.559l40.914-29.664h0.003906c2.4219-1.75 5.7617-1.4844 7.875 0.62891 2.1172 2.1133 2.3828 5.4531 0.63672 7.8789l-36.18 49.906h-0.003906c6.6484 18.422 10.348 37.777 10.957 57.352zm-243.95 66.332c-6.9258 0-13.57 2.75-18.469 7.6484-4.8984 4.8945-7.6484 11.539-7.6484 18.465 0 6.9258 2.75 13.57 7.6484 18.465 4.8984 4.8984 11.543 7.6484 18.469 7.6484 6.9258-0.003907 13.566-2.7539 18.465-7.6562 4.8945-4.8984 7.6445-11.543 7.6406-18.469-0.007812-6.918-2.7617-13.555-7.6562-18.449-4.8945-4.8906-11.527-7.6445-18.449-7.6523zm0 40.031c5.6289 0 10.707-3.3906 12.863-8.5938s0.96484-11.191-3.0156-15.172c-3.9805-3.9844-9.9688-5.1758-15.172-3.0234-5.2031 2.1562-8.5977 7.2305-8.5977 12.859 0 7.6914 6.2305 13.922 13.922 13.93z" fill="#ff7979" fill-rule="evenodd"/>
</svg>
