<?xml version="1.0" encoding="UTF-8"?>
<svg width="512pt" height="512pt" version="1.1" viewBox="0 0 512 512" xmlns="http://www.w3.org/2000/svg">
 <path d="m240.85 33.324c169.66-9.0898 130.27 215.1 115.12 266.61-12.117-3.0312-21.207-6.0586-30.297-9.0898 24.238-81.797 33.324-212.07-84.828-239.34-3.0312-6.0586-3.0312-12.117 0-18.176z" fill="#ffb258" fill-rule="evenodd"/>
 <path d="m95.434 190.86c12.117-12.117 90.887-139.36 27.266-90.887 18.176-45.445 45.445-51.504 69.68-54.531 0-6.0586-21.207-21.207-24.238-45.445 18.176 6.0586 48.473 15.148 66.652 33.324-3.0312 9.0898-6.0586 24.238 0 27.266 99.977 27.266 109.07 124.21 81.797 215.1 0 6.0586-3.0312 15.148-6.0586 21.207 18.176 6.0586 33.324 12.117 48.473 18.176 9.0898 9.0898 18.176 18.176 12.117 27.266h-227.22c-27.266-81.797 118.15-157.54 78.77-199.95 18.176 21.207-15.148 63.621-42.414 57.562-12.117 12.117-27.266 18.176-45.445 33.324 3.0312 9.0898-30.297 30.297-36.355 21.207 3.0312-6.0586 3.0312-3.0312 3.0312-6.0586-3.0312 0-6.0586 6.0586-9.0898 6.0586-21.207-27.266-12.117-48.473 3.0312-63.621zm63.621-63.621s-3.0312-18.176 9.0898-24.238c12.117-6.0586 18.176-3.0312 18.176-3.0312s6.0586 12.117-27.266 27.266z" fill="#ffb258" fill-rule="evenodd"/>
 <path d="m431.71 487.76v3.0312c0 6.0586-3.0312 15.148-6.0586 21.207h-336.29c-3.0312-6.0586-3.0312-15.148-3.0312-21.207v-3.0312z" fill="#ffb258" fill-rule="evenodd"/>
 <path d="m362.04 415.05c33.324 3.0312 60.59 30.297 66.652 63.621h-342.34c6.0586-33.324 33.324-60.59 69.68-63.621-12.117-9.0898-18.176-24.238-18.176-39.383 0-6.0586 3.0312-15.148 6.0586-21.207h230.25c3.0312 6.0586 3.0312 15.148 3.0312 21.207 0 15.148-6.0586 30.297-15.148 39.383z" fill="#ffb258" fill-rule="evenodd"/>
</svg>
