<?xml version="1.0" encoding="UTF-8"?>
<svg width="512pt" height="512pt" version="1.1" viewBox="0 0 512 512" xmlns="http://www.w3.org/2000/svg">
 <path d="m487.62 312.84-10.762-6.1406-185.5 105.78c-21.918 12.5-48.84 12.5-70.758 0l-185.48-105.78-10.762 6.1406c-18.801 10.762-18.898 37.879 0 48.582l196.26 111.88c21.918 12.5 48.84 12.5 70.758 0l196.26-111.88c18.898-10.699 18.801-37.84 0-48.582z" fill="#c362dd"/>
 <path d="m487.62 231.48-10.699-6.1016h-0.058594l-185.5 105.78c-21.918 12.5-48.84 12.5-70.758 0l-185.48-105.78h-0.058594l-10.699 6.1016c-18.801 10.801-18.898 37.941 0 48.641l10.762 6.1016 185.5 105.78c21.918 12.5 48.84 12.5 70.758 0l185.5-105.78 10.762-6.1016c18.898-10.699 18.801-37.84 0-48.641z" fill="#c362dd"/>
 <path d="m24.379 198.82 10.699 6.1016h0.058594l185.5 105.78c21.918 12.5 48.84 12.5 70.758 0l185.5-105.78h0.058593l10.699-6.1016c18.84-10.699 18.84-37.879 0-48.582l-196.34-111.58c-21.918-12.441-48.738-12.441-70.66 0l-196.28 111.56c-18.84 10.699-18.84 37.879 0 48.582z" fill="#c362dd"/>
</svg>
