<?xml version="1.0" encoding="UTF-8"?>
<svg width="512pt" height="512pt" version="1.1" viewBox="0 0 512 512" xmlns="http://www.w3.org/2000/svg">
 <path d="m61.039 438.42v-95.781c14.621 9.2188 30.68 16 47.5 20.059 37.879 10.238 90 16.84 147.46 16.84 57.441 0 109.56-6.3984 147.46-16.84 16.82-4.0586 32.879-10.84 47.5-20.059v95.781c0 31.34-87.039 56.719-194.96 56.719-107.92 0-194.96-25.602-194.96-56.719zm194.96-421.58c107.52 0 194.96 25.602 194.96 56.719 0 31.141-87.438 56.699-194.96 56.699-107.52 0-194.96-25.602-194.96-56.68s87.438-56.738 194.96-56.738zm-105.94 386.46c-7.8789 0-15 4.7617-18.02 12.039-3.0195 7.3008-1.3398 15.68 4.2383 21.262 5.5781 5.5781 13.961 7.2617 21.262 4.2383 7.2812-3.0195 12.039-10.141 12.039-18.039-0.039062-10.762-8.7617-19.461-19.52-19.5zm0-120.38v0.019532c7.8984 0 15.02 4.7383 18.039 12.039 3.0195 7.3008 1.3398 15.699-4.2617 21.281-5.5781 5.5586-13.98 7.2188-21.281 4.1797-7.2812-3.0195-12.02-10.16-12-18.059 0-5.1602 2.0586-10.121 5.7188-13.762 3.6602-3.6602 8.6211-5.6992 13.781-5.6797zm0-120.42c7.8984 0 15.02 4.7617 18.02 12.059 3.0195 7.2812 1.3594 15.68-4.2188 21.238-5.5781 5.5781-13.961 7.2617-21.262 4.2383-7.2812-3.0195-12.039-10.141-12.039-18.02 0-10.781 8.7383-19.52 19.5-19.52zm-89.02 165.18c8.3984 8.6016 26.219 16.641 50.641 23.34 36.801 10.34 88.004 16.602 144.32 16.602 56.32 0 107.52-6.2422 144.34-16.379 24.621-6.7188 42.238-14.762 50.621-23.559v-108.18c-14.922 10.082-31.52 17.379-49.039 21.539-37.48 10.238-89.043 16.84-145.92 16.84-56.879 0-108.44-6.3984-145.92-16.84-17.52-4.1602-34.121-11.461-49.039-21.539zm0-124.16c7.1211 9.5195 25.602 18.48 52.219 25.859 36.398 10.238 87.039 16.379 142.74 16.379 55.699 0 106.34-6.2422 142.74-16.379 26.48-7.3789 45.102-16.34 52.219-25.859v-104.96c-14.379 13.82-38.5 22.16-53.762 26.578-43.918 13.102-95.121 17.102-141.2 17.102s-97.281-4-141.2-17.102c-15.359-4.3984-39.379-12.738-53.762-26.578z" fill="#ffd65b" fill-rule="evenodd"/>
</svg>
